<svg width="25" height="24" viewBox="0 0 25 24" fill="none" xmlns="http://www.w3.org/2000/svg">
<mask id="mask0_52_799" style="mask-type:alpha" maskUnits="userSpaceOnUse" x="0" y="0" width="25" height="24">
<rect x="0.5" width="24" height="24" fill="#D9D9D9"/>
</mask>
<g mask="url(#mask0_52_799)">
<path d="M11.3 14.1999H13.7V11.1999H16.7V8.7999H13.7V5.7999H11.3V8.7999H8.30002V11.1999H11.3V14.1999ZM1.65002 22.8499V4.2999C1.65002 3.41657 1.95419 2.67074 2.56252 2.0624C3.17086 1.45407 3.91669 1.1499 4.80002 1.1499H20.2C21.0834 1.1499 21.8292 1.45407 22.4375 2.0624C23.0459 2.67074 23.35 3.41657 23.35 4.2999V15.6999C23.35 16.5832 23.0459 17.3291 22.4375 17.9374C21.8292 18.5457 21.0834 18.8499 20.2 18.8499H5.65002L1.65002 22.8499Z" fill="#EFB359"/>
</g>
</svg>
