<svg width="121" height="120" viewBox="0 0 121 120" fill="none" xmlns="http://www.w3.org/2000/svg">
<path d="M15.2885 120C11.1642 120 7.6972 118.61 4.88756 115.831C2.07792 113.051 0.673096 109.621 0.673096 105.538V16C0.673096 11.8756 2.07792 8.40861 4.88756 5.59907C7.6972 2.78943 11.1642 1.38462 15.2885 1.38462H73.1346V16H15.2885V105.538H104.827V47.6923H119.288V105.538C119.288 109.621 117.872 113.051 115.038 115.831C112.205 118.61 108.801 120 104.827 120H15.2885ZM95.6731 39.5385V25.3846H81.4423V14.3846H95.5962V0H106.596V14.2308H120.827V25.3077H106.673V39.5385H95.6731ZM23.1346 91.2308H96.9808L74.8269 61.6923L55.2885 87.3846L40.8269 68.3077L23.1346 91.2308Z" fill="#200F00"/>
</svg>
