<svg width="25" height="24" viewBox="0 0 25 24" fill="none" xmlns="http://www.w3.org/2000/svg">
<mask id="mask0_63_988" style="mask-type:alpha" maskUnits="userSpaceOnUse" x="0" y="0" width="24" height="24">
<rect width="24" height="24" fill="#D9D9D9"/>
</mask>
<g mask="url(#mask0_63_988)">
<path d="M3.1499 19.85V16.7H4.8499V10.55C4.8499 8.95003 5.3124 7.50836 6.2374 6.22502C7.1624 4.94169 8.39157 4.10836 9.9249 3.72502V3.22502C9.9249 2.64864 10.1266 2.15871 10.5301 1.75522C10.9336 1.35176 11.4235 1.15002 11.9999 1.15002C12.5763 1.15002 13.0662 1.35176 13.4697 1.75522C13.8732 2.15871 14.0749 2.64864 14.0749 3.22502V3.72502C15.6249 4.10836 16.8582 4.93752 17.7749 6.21252C18.6916 7.48752 19.1499 8.93336 19.1499 10.55V16.7H20.8499V19.85H3.1499ZM12.0249 23.125C11.3924 23.125 10.8509 22.9023 10.4005 22.4567C9.95011 22.0112 9.7249 21.4756 9.7249 20.85H14.2999C14.2999 21.4834 14.0771 22.0209 13.6316 22.4625C13.1861 22.9042 12.6505 23.125 12.0249 23.125Z" fill="#FFFBF8"/>
</g>
<g clip-path="url(#clip0_63_988)">
<rect x="13" y="1" width="12" height="12" rx="6" fill="#FFFBF8"/>
<mask id="mask1_63_988" style="mask-type:alpha" maskUnits="userSpaceOnUse" x="13" y="1" width="12" height="12">
<rect x="13" y="1" width="12" height="12" fill="#D9D9D9"/>
</mask>
<g mask="url(#mask1_63_988)">
<path d="M18.9973 9.92501C19.2409 9.92501 19.446 9.84263 19.6127 9.67786C19.7794 9.5131 19.8627 9.30893 19.8627 9.06536C19.8627 8.8218 19.7803 8.6146 19.6155 8.44376C19.4508 8.27293 19.2466 8.18751 19.003 8.18751C18.7595 8.18751 18.5544 8.27293 18.3877 8.44376C18.221 8.6146 18.1377 8.8218 18.1377 9.06536C18.1377 9.30893 18.2201 9.5131 18.3848 9.67786C18.5496 9.84263 18.7538 9.92501 18.9973 9.92501ZM18.2127 7.52501H19.7877V4.23751H18.2127V7.52501ZM19.0002 12.425C18.2419 12.425 17.5336 12.283 16.8754 11.999C16.2171 11.7149 15.6446 11.3295 15.1576 10.8426C14.6707 10.3557 14.2853 9.78308 14.0012 9.12485C13.7172 8.46662 13.5752 7.75835 13.5752 7.00001C13.5752 6.24168 13.7172 5.5334 14.0012 4.87517C14.2853 4.21694 14.6707 3.64437 15.1576 3.15746C15.6446 2.67055 16.2171 2.28509 16.8754 2.00106C17.5336 1.71703 18.2419 1.57501 19.0002 1.57501C19.7585 1.57501 20.4668 1.71703 21.125 2.00106C21.7833 2.28509 22.3558 2.67055 22.8427 3.15746C23.3297 3.64437 23.7151 4.21694 23.9991 4.87517C24.2832 5.5334 24.4252 6.24168 24.4252 7.00001C24.4252 7.75835 24.2832 8.46662 23.9991 9.12485C23.7151 9.78308 23.3297 10.3557 22.8427 10.8426C22.3558 11.3295 21.7833 11.7149 21.125 11.999C20.4668 12.283 19.7585 12.425 19.0002 12.425Z" fill="#E76B6B"/>
</g>
</g>
<defs>
<clipPath id="clip0_63_988">
<rect x="13" y="1" width="12" height="12" rx="6" fill="white"/>
</clipPath>
</defs>
</svg>
