<svg width="30" height="30" viewBox="0 0 30 30" fill="none" xmlns="http://www.w3.org/2000/svg">
<mask id="mask0_10_256" style="mask-type:alpha" maskUnits="userSpaceOnUse" x="0" y="0" width="30" height="30">
<rect width="30" height="30" fill="#D9D9D9"/>
</mask>
<g mask="url(#mask0_10_256)">
<path d="M15 13.75C15.6875 13.75 16.276 13.5052 16.7656 13.0156C17.2552 12.526 17.5 11.9375 17.5 11.25C17.5 10.5625 17.2552 9.97396 16.7656 9.48438C16.276 8.99479 15.6875 8.75 15 8.75C14.3125 8.75 13.724 8.99479 13.2344 9.48438C12.7448 9.97396 12.5 10.5625 12.5 11.25C12.5 11.9375 12.7448 12.526 13.2344 13.0156C13.724 13.5052 14.3125 13.75 15 13.75ZM8.75 26.25V23.75H13.75V19.875C12.7292 19.6458 11.8177 19.2135 11.0156 18.5781C10.2135 17.9427 9.625 17.1458 9.25 16.1875C7.6875 16 6.38021 15.3177 5.32812 14.1406C4.27604 12.9635 3.75 11.5833 3.75 10V8.75C3.75 8.0625 3.99479 7.47396 4.48438 6.98438C4.97396 6.49479 5.5625 6.25 6.25 6.25H8.75V3.75H21.25V6.25H23.75C24.4375 6.25 25.026 6.49479 25.5156 6.98438C26.0052 7.47396 26.25 8.0625 26.25 8.75V10C26.25 11.5833 25.724 12.9635 24.6719 14.1406C23.6198 15.3177 22.3125 16 20.75 16.1875C20.375 17.1458 19.7865 17.9427 18.9844 18.5781C18.1823 19.2135 17.2708 19.6458 16.25 19.875V23.75H21.25V26.25H8.75ZM8.75 13.5V8.75H6.25V10C6.25 10.7917 6.47917 11.5052 6.9375 12.1406C7.39583 12.776 8 13.2292 8.75 13.5ZM15 17.5C16.0417 17.5 16.9271 17.1354 17.6562 16.4062C18.3854 15.6771 18.75 14.7917 18.75 13.75V6.25H11.25V13.75C11.25 14.7917 11.6146 15.6771 12.3438 16.4062C13.0729 17.1354 13.9583 17.5 15 17.5ZM21.25 13.5C22 13.2292 22.6042 12.776 23.0625 12.1406C23.5208 11.5052 23.75 10.7917 23.75 10V8.75H21.25V13.5Z" fill="#200F00"/>
</g>
</svg>
