<svg width="25" height="25" viewBox="0 0 25 25" fill="none" xmlns="http://www.w3.org/2000/svg">
<mask id="mask0_46_252" style="mask-type:alpha" maskUnits="userSpaceOnUse" x="0" y="0" width="25" height="25">
<rect x="0.5" y="0.5" width="24" height="24" fill="#D9D9D9"/>
</mask>
<g mask="url(#mask0_46_252)">
<path d="M9.14998 17.7001L12.5 14.3501L15.85 17.7001L17.7 15.8501L14.35 12.5001L17.7 9.1501L15.85 7.3001L12.5 10.6501L9.14998 7.3001L7.29998 9.1501L10.65 12.5001L7.29998 15.8501L9.14998 17.7001ZM12.5 23.6501C10.956 23.6501 9.50208 23.3617 8.1383 22.785C6.7745 22.2083 5.59053 21.4178 4.58638 20.4137C3.58223 19.4095 2.79179 18.2256 2.21508 16.8618C1.63834 15.498 1.34998 14.0441 1.34998 12.5001C1.34998 10.9518 1.63883 9.49809 2.21653 8.13887C2.79424 6.77966 3.58602 5.59659 4.59185 4.58967C5.59768 3.58274 6.78165 2.79108 8.14375 2.2147C9.50583 1.6383 10.9579 1.3501 12.5 1.3501C14.0481 1.3501 15.5017 1.6383 16.8608 2.2147C18.2198 2.79108 19.4029 3.58285 20.4101 4.59C21.4172 5.59715 22.209 6.78048 22.7854 8.14C23.3618 9.49951 23.65 10.9536 23.65 12.5022C23.65 14.0508 23.3618 15.5042 22.7854 16.8623C22.209 18.2204 21.4173 19.4024 20.4104 20.4082C19.4035 21.4141 18.2204 22.2058 16.8612 22.7835C15.502 23.3612 14.0482 23.6501 12.5 23.6501Z" fill="#EFB359"/>
</g>
</svg>
