<svg width="30" height="30" viewBox="0 0 30 30" fill="none" xmlns="http://www.w3.org/2000/svg">
<mask id="mask0_10_411" style="mask-type:alpha" maskUnits="userSpaceOnUse" x="0" y="0" width="30" height="30">
<rect width="30" height="30" fill="#D9D9D9"/>
</mask>
<g mask="url(#mask0_10_411)">
<path d="M8.89541 23.9062C8.37105 23.9062 7.92753 23.7111 7.56484 23.3208C7.20218 22.9305 7.02084 22.4868 7.02084 21.9896V18.4792H23.6562V6.91669H27.2012C27.6975 6.91669 28.13 7.10883 28.4988 7.49313C28.8676 7.8774 29.0521 8.32067 29.0521 8.82294V29.1667L23.7917 23.9062L8.89541 23.9062ZM0.947937 21.8438V2.70003C0.947937 2.21403 1.13315 1.77968 1.50356 1.39697C1.87392 1.01428 2.31023 0.822937 2.8125 0.822937H19.6738C20.1966 0.822937 20.6438 1.01162 21.0155 1.38897C21.3871 1.7663 21.5729 2.20609 21.5729 2.70834V14.5121C21.5729 15.0171 21.3847 15.4572 21.0083 15.8327C20.6319 16.2081 20.1882 16.3958 19.6771 16.3958H6.40625L0.947937 21.8438Z" fill="#200F00"/>
</g>
</svg>
