<svg width="16" height="16" viewBox="0 0 16 16" fill="none" xmlns="http://www.w3.org/2000/svg">
<mask id="mask0_39_492" style="mask-type:alpha" maskUnits="userSpaceOnUse" x="0" y="0" width="16" height="16">
<rect width="16" height="16" fill="#D9D9D9"/>
</mask>
<g mask="url(#mask0_39_492)">
<path d="M4.74451 12.75C4.46485 12.75 4.22831 12.6459 4.03488 12.4378C3.84145 12.2296 3.74474 11.993 3.74474 11.7278V9.85555H12.6169V3.6889H14.5076C14.7723 3.6889 15.0029 3.79138 15.1997 3.99634C15.3964 4.20128 15.4947 4.43769 15.4947 4.70557V15.5556L12.6892 12.75L4.74451 12.75ZM0.505859 11.65V1.44002C0.505859 1.18082 0.604637 0.949165 0.802193 0.745054C0.999715 0.540954 1.23241 0.438904 1.50029 0.438904H10.493C10.7718 0.438904 11.0103 0.539532 11.2085 0.740788C11.4067 0.942032 11.5058 1.17659 11.5058 1.44445V7.7398C11.5058 8.0091 11.4055 8.24387 11.2047 8.4441C11.004 8.64434 10.7673 8.74445 10.4947 8.74445H3.41696L0.505859 11.65Z" fill="#EFB359"/>
</g>
</svg>
