<svg width="183" height="120" viewBox="0 0 183 120" fill="none" xmlns="http://www.w3.org/2000/svg">
<path d="M18.7787 120C13.6657 120 9.31059 118.201 5.71321 114.604C2.11583 111.007 0.317139 106.651 0.317139 101.538V18.6579C0.317139 13.4909 2.11583 9.08955 5.71321 5.45381C9.31059 1.81793 13.6657 0 18.7787 0H101.659C106.826 0 111.228 1.81793 114.863 5.45381C118.499 9.08955 120.317 13.4909 120.317 18.6579V101.538C120.317 106.651 118.499 111.007 114.863 114.604C111.228 118.201 106.826 120 101.659 120H18.7787ZM18.7787 101.538H101.659V18.6579H18.7787V101.538ZM28.0094 84.2553H91.8392L72.1993 58.1342L55.5054 79.7381L43.7214 63.6334L28.0094 84.2553ZM137.208 120V0H151.348V120H137.208ZM168.042 120V0H182.183V120H168.042Z" fill="#200F00"/>
</svg>
