<svg width="24" height="24" viewBox="0 0 24 24" fill="none" xmlns="http://www.w3.org/2000/svg">
<path d="M21.1871 23.9764H2.81293C2.06002 23.9764 1.40689 23.6997 0.85356 23.1464C0.300226 22.5931 0.0235596 21.9399 0.0235596 21.187V2.8129C0.0235596 2.05863 0.300226 1.40434 0.85356 0.850025C1.40689 0.295713 2.06002 0.0185547 2.81293 0.0185547H21.1871C21.9413 0.0185547 22.5956 0.295713 23.1499 0.850025C23.7042 1.40434 23.9814 2.05863 23.9814 2.8129V21.187C23.9814 21.9399 23.7042 22.5931 23.1499 23.1464C22.5956 23.6997 21.9413 23.9764 21.1871 23.9764ZM2.81293 21.187H12V10.7151L21.1871 21.187V2.8129H12V10.7151L2.81293 21.187Z" fill="#200F00"/>
</svg>
