<?xml version="1.0" encoding="utf-8"?>
<!-- Generator: Adobe Illustrator 27.1.1, SVG Export Plug-In . SVG Version: 6.00 Build 0)  -->
<svg version="1.1" id="Layer_1" xmlns="http://www.w3.org/2000/svg" xmlns:xlink="http://www.w3.org/1999/xlink" x="0px" y="0px"
	 viewBox="0 0 512.9 388.3" style="enable-background:new 0 0 512.9 388.3;" xml:space="preserve">
<style type="text/css">
	.st0{fill:#EFB359;}
</style>
<g>
	<path class="st0" d="M152.1,280.7c8.6,0,16.6,0,24.6,0c5.8,0,11.6,1,15.5,5.6c1.8,2.1,3.3,6.1,2.5,8.3c-0.8,2.1-4.8,4.1-7.5,4.1
		c-20.2,0.3-40.3,0.3-60.5,0.2c-5.8,0-8.2-2.9-6.4-8.3c3.1-9.5,6.9-18.7,10.4-28.1c0.6-1.5,1.1-3,1.7-4.5c-0.3-0.3-0.7-0.5-1-0.8
		c-10.2,10.2-20.6,20.1-30.4,30.6c-5.4,5.9-5.9,13.5-3.9,21.2c5.6,21.5,27.2,39.3,50.8,42.3c45,5.7,75.1-30.1,76.7-64.8
		c0.6-12.2-1.3-23.9-5.7-35.2c-0.5-1.4-1-2.8-1.5-4.2c-0.1-0.4,0-1,0-3.1c2.4,2.2,4.1,3.4,5.4,5c18.3,23.4,22.5,49.5,13,77.3
		c-14.7,43.4-58.3,68.4-104.4,60.6c-35.3-5.9-63.5-23.9-86.2-51C7.4,290.4-6.5,238,2.7,180c10.9-68.3,47-121.3,103.5-160.2
		c19-13.1,40.8-20.3,64.4-20c4.8,0.1,9.7,0.7,14.2,2.3C200.5,7.4,215,15.5,228,25.7c9.3,7.3,9.3,15.3-0.7,21.2
		C215,54.2,202,60.2,189.1,66.3c-9.3,4.4-19.3,7.4-28.5,12.1c-17.3,8.7-24.4,24.6-19.9,43.4c1.3,5.6,3.4,11.2,5.9,16.4
		c3.3,6.8,9.2,8.7,15.3,4.3c8.1-6,15.5-13,23.1-19.7c3.2-2.9,5.8-6.7,9.5-8.8c3-1.8,7.2-2.9,10.6-2.3c6.5,1,8.4,8.1,4,13
		c-5,5.8-10.2,11.5-15.3,17.2c-0.4-0.2-0.8-0.4-1.2-0.6c1.2,0.2,2.4,0.4,3.6,0.4c7,0.1,14,0,21,0.2c2.6,0.1,5.4,0.5,7.8,1.4
		c4.4,1.6,7,6.4,6.1,10.3c-0.9,4.2-4.7,7-9.7,7c-1.5,0-3-0.1-4.5-0.4c-14.8-3.5-28.3-1-40.7,8.1c-4.2,3.1-9.3,5.4-14.3,7
		c-17.7,5.8-32.1,1-42.7-14.5c-13.6-20-18-41.9-12.9-67c-7.8,8.5-12,17.5-14,27.5c-3.4,16.5,0.6,31.7,9.4,45.8c1.9,3,4.5,6.8,4,9.8
		c-1.2,7.6-3.8,15-6.2,22.4c-0.5,1.5-3,2.5-4.8,3.4c-12.7,6.6-23.9,15-33.8,25.4c-14.1,14.9-21.7,32.5-23.1,53.4
		c0.8-1,1.6-1.7,2.1-2.5c24.3-37.3,57.8-62.6,99.8-76.8c4.1-1.4,8.4-2.3,12.7-2.7c15.5-1.3,26.3,9.9,23.2,25.2
		c-2,10.2-6,20.1-10,29.7C162,263,157,271.3,152.1,280.7z M187,34.7c5-2.2,5.4-4,2.5-8.7c-4.5-7.2-13.9-10.5-23.3-8.2
		c-9.9,2.4-20.3,11.8-20.3,19.1c0,1.7,2.4,4.6,4.1,4.9c4,0.7,8.1,0.2,12.2,0.2c1-7.1,3.3-10.4,8.5-12.1
		C177.1,27.9,182.6,29.5,187,34.7z"/>
	<path class="st0" d="M296.1,245.2c-0.7,2-1.3,4.1-2,6.1c-11.2,29.4-7.7,63.8,20.7,86.9c32.3,26.3,84.4,13,99.5-25.8
		c4.2-10.8,3.4-20.4-5.5-28.8c-9.2-8.6-18.2-17.5-28.4-25.7c1.8,4.7,3.5,9.4,5.4,14.1c2.3,5.7,4.8,11.3,7,17.1
		c2.2,5.9-0.3,9.6-6.6,9.7c-20.7,0-41.3,0-62-0.2c-6.2-0.1-8.9-5.5-5.4-10.9c3.3-5.1,8.6-6.7,14.3-6.9c7.2-0.2,14.3-0.1,21.5-0.2
		c1.8,0,3.6,0,6.3,0c-2.8-5.3-5.3-10-7.8-14.6c-6.6-12.7-13.2-25.4-16-39.7c-3.3-17.2,7.4-29.7,24.7-26.8
		c10.8,1.8,21.5,5.9,31.5,10.6c33.4,15.8,60.4,39.3,80.6,70.6c1.3-9.2-3-25.8-9.8-36.7c-11.1-17.7-26.5-30.7-44.9-40.2
		c-4.5-2.3-7.6-5.3-8.9-10c-1-3.5-1.9-7.1-2.9-10.6c-1.9-6.4-0.5-11.8,3.3-17.3c7.7-11.1,11.3-23.7,10.6-37.3
		c-0.7-13.1-5.5-24.5-15.1-35.4c3.9,16.4,2.7,31.3-2.1,45.8c-3.6,10.9-8.9,20.8-17.6,28.6c-11.7,10.3-24.9,12.2-39.1,6.5
		c-5.4-2.2-10.5-5.1-15.3-8.3c-10.9-7.3-22.5-9.5-35.2-6.3c-2.1,0.5-4.3,0.7-6.4,0.7c-5,0-8.4-2.7-9.1-6.9
		c-0.8-4.5,1.8-9.2,6.4-10.6c3-0.9,6.2-1.1,9.4-1.2c7.8-0.2,15.6-0.1,25.1-0.1c-5.9-5.6-10.8-10.2-15.6-14.8
		c-1.2-1.1-2.6-2.2-3.5-3.5c-3.6-5.3-0.8-11.4,5.6-12.2c5-0.6,8.7,1.7,12,4.9c6.8,6.4,13.3,13.1,20.3,19.3c3.3,3,7,5.7,10.9,7.9
		c5.1,2.8,10,1.6,13-3.4c6.3-10.5,9.6-22.1,8.2-34.4c-1.4-12.9-8.9-21.7-20.5-26.9c-9.1-4.1-18.7-7.1-27.7-11.4
		c-13.4-6.3-26.8-12.7-39.4-20.3c-9.7-5.8-10.1-14.1-1.3-21.2c16-12.8,33.3-23.8,54.3-25.5c9.1-0.7,18.7,0.7,27.6,2.9
		c25.7,6.3,47.3,20,66.7,37.7c36.3,33,62,72.7,73.8,120.5c13.7,55.7,5.4,108.5-25.8,156.6c-21.4,33-50.6,57-89.7,66.6
		c-33.1,8.2-64,3.5-89.5-20.4c-32.3-30.3-39.3-74.5-14.3-112c1.9-2.9,4.4-5.5,6.7-8.2C294.6,244.4,295.4,244.8,296.1,245.2z
		 M352.9,42.5c2.9-0.2,6.8-0.4,10.8-0.7c4.2-0.3,4.8-2.7,3.6-6.3c-4.2-11.8-19.1-20.4-31.4-18c-6.6,1.3-11.7,4.9-13.9,11.5
		c-0.4,1.3,0.1,4.1,1,4.5c1.3,0.6,3.7,0.1,4.9-0.9c5.1-4.4,13-5.4,17.8-1C348.4,34.2,350,38,352.9,42.5z"/>
</g>
</svg>
