<?xml version="1.0" encoding="utf-8"?>
<!-- Generator: Adobe Illustrator 27.1.1, SVG Export Plug-In . SVG Version: 6.00 Build 0)  -->
<svg version="1.1" id="Layer_1" xmlns="http://www.w3.org/2000/svg" xmlns:xlink="http://www.w3.org/1999/xlink" x="0px" y="0px"
	 viewBox="0 0 478.4 510.8" style="enable-background:new 0 0 478.4 510.8;" xml:space="preserve">
<style type="text/css">
	.st0{fill:#EFB359;}
</style>
<g>
	<path class="st0" d="M170,191.3c-31-8-54.2,0.7-74.2,30c-32.4,47.5-35.6,98.2-9.8,149.1c29.1,57.3,78.1,86.9,141.5,92
		c48,3.8,92.1-9.2,129.8-39.5c38.3-30.7,58.6-70.9,55.5-120.8c-4.3-69.4-67.7-116.3-135.4-99.9c-21.8,5.3-42.9,13.2-64.2,20.4
		c-10.5,3.5-10.4,4-18-5.8c3-2.4,6-4.9,9.1-7.4c33.5-26.3,71.2-39.1,114-35.7c59.5,4.8,109.2,45.5,126.3,103
		c10.3,34.7,7.2,68.7-5.7,101.8c-24.7,63.5-72.4,102-136.2,121.5c-66,20.1-129.7,11.6-188.3-23.3C54.1,441,16.3,387.3,4,317.6
		c-8.7-48.8-3.4-96.3,19.1-141.1c5.1-10,12.1-19.1,18.2-28.6c1-1.6,2.6-3.6,2.4-5.2c-3.2-25,9.3-44.4,22.6-63.3
		c14.6-20.8,32.1-38.7,54.7-51c5.7-3.1,11.6-6,17.7-7.9c5.8-1.8,10.4-4.7,14.8-8.7c14.3-13,31-15,47.8-6.8
		c14.1,7,28.9,10.9,43.9,14.5c7.1,1.7,14.3,3.4,21.4,5.1c10.5,2.5,19.2,7.6,21.7,18.9c2.6,12.1-0.1,23.2-10.2,31
		c-8.1,6.3-17.1,11.6-25.5,17.6c-16.2,11.7-32.8,22.9-48.2,35.5c-17.1,13.9-28.3,32.2-32.9,54C170.6,184.6,170.4,187.8,170,191.3z
		 M182.8,62.4c12.4,0.2,21.2-7.6,21.2-18.8c0.1-11.5-9.6-21.1-21.4-21.2c-10.7-0.1-19.8,8.7-20.1,19.4
		C162.3,54.3,170.1,62.2,182.8,62.4z"/>
	<path class="st0" d="M166.9,270.6c-11.6,26.7-11.2,53.5-0.7,81c1.8-0.9,3.3-1.7,4.9-2.6c13-7.8,26-15.6,38.9-23.5
		c7.2-4.4,14.6-7.9,23.4-7.4c21.1,1.2,34.2,22.6,24.7,41.5c-6,12-13.6,23.3-20.6,34.8c-1.8,3-3.7,5.9-6.2,9.8c2.6,0,4.4,0,6.1,0
		c30.5,0,61,0,91.5,0.1c2.8,0,5.8,0.2,8.3,1.3c1.8,0.8,3.7,3.2,3.9,5.1c0.2,1.5-1.7,3.9-3.4,4.9c-2.5,1.6-5.5,2.4-8.3,3.4
		c-22.1,7.4-44.2,14.8-67.5,17.8c-62.4,8.2-124.5-23-152.3-78.2C90,319.7,90.8,280,112.3,241.5c5.2-9.4,12.4-17.3,21.6-23.2
		c11.4-7.3,27.7-8.6,38.9,5.6c4.5,5.7,9.6,11.1,14.5,16.5c5.2,5.7,11.7,7.5,19.1,5.2c22.3-6.9,44.5-13.8,66.7-20.7
		c15.1-4.7,30.3-5.3,44.9,1.4c4.6,2.1,9,5.7,12.4,9.6c3.8,4.2,3.1,10.7-0.3,14.2s-8.3,3.5-13.8,0.8c-5.8-2.8-11.7-5.7-18-7
		c-4-0.8-8.9,0.6-12.9,2.2c-4,1.6-3.9,4.5-0.3,7.1c4.3,3.1,8.9,5.9,13,9.3c4.3,3.4,7.2,7.9,7.4,13.6c0.2,5.3-2.4,9.6-6.7,11.2
		c-4.8,1.8-10.7,0.4-13.1-4.4c-3.8-7.5-9.4-12.1-17.2-14.8c-8.8-3-17.4-2.5-26,0.5c-11.8,4.1-23.6,8.3-35.3,12.6
		c-9.6,3.5-19.2,5-28.4-0.6C174.6,278.1,171.2,274.4,166.9,270.6z"/>
	<path class="st0" d="M399.7,158.6c-44.3-0.2-78.3-34-78.1-77.8c0.2-43.5,34.9-76.9,79.7-76.9c42.3,0,77.2,35.2,77,77.7
		C478.3,124.6,443.4,158.8,399.7,158.6z M380.8,88.7c-1.1,10.3-5.9,18.5-11.9,27c19.7,0,38.5,0,57.5,0c0.7-4.4,1.3-8.4,2.1-13
		c-12,0-23.2,0-34.7,0c1.1-5.1,2.1-9.6,3.2-14.5c3.1,0,5.8,0,8.6,0c0.3-3.4,0.6-6.3,0.9-9.5c-3.2-0.2-6-0.3-8.9-0.4c0-2.7,0-5,0-7.7
		c3.6,0,6.7,0,10.2,0c0.5-3.5,0.9-6.6,1.5-10.2c-4.4,0-7.8,0-11.6,0c1.6-11.3,8.3-18.7,17.4-24.8c-17.1-4.9-25.7,1.7-33.6,25.1
		c-3.9,0-7.9,0-12.2,0c0,3.6,0,6.7,0,10.1c4.3,0,8.3,0,12.3,0c0,2.7,0,5,0,7.9c-4.3,0-8.4,0-12.5,0c0,3.7,0,6.8,0,10.2
		C373,88.7,376.7,88.7,380.8,88.7z"/>
</g>
</svg>
