<?xml version="1.0" encoding="utf-8"?>
<!-- Generator: Adobe Illustrator 27.1.1, SVG Export Plug-In . SVG Version: 6.00 Build 0)  -->
<svg version="1.1" id="Layer_1" xmlns="http://www.w3.org/2000/svg" xmlns:xlink="http://www.w3.org/1999/xlink" x="0px" y="0px"
	 viewBox="0 0 527.5 535.6" style="enable-background:new 0 0 527.5 535.6;" xml:space="preserve">
<style type="text/css">
	.st0{fill:#EFB359;}
</style>
<g>
	<path class="st0" d="M130.1,66.9c5.5,13,15.9,20.6,28.9,25.4c16.9,6.1,34.6,6.2,52.3,6.3c25.2,0.1,49.3-4.9,72-16
		c1.4-0.7,3.3-0.2,5-0.3c-0.6,1.8-0.6,4.3-1.8,5.1c-6.9,4.5-13.7,10-21.4,12.4c-15.8,5-32.2,8.2-48.3,12.5
		c-7.8,2.1-15.8,4.5-23.1,7.9c-10.8,5.1-17.7,13.9-20.8,25.5c-0.9,3.2-0.8,5.8,2.4,7.7c12.5,7.7,24.6,15.8,37.4,23
		c8.2,4.6,17.4,4.1,25.6,0c8.7-4.3,16.9-9.9,25.2-15c2.1-1.3,3.8-3.1,5.7-4.6c0.5,0.2,1,0.3,1.5,0.5c-0.8,5.8-0.9,11.7-2.6,17.2
		c-6.4,21-20.6,34.6-41.3,41.3c-8.8,2.9-17.7,2-25.8-2c-13-6.4-25.6-13.4-38.3-20.4c-1.5-0.8-2.8-2.9-3.1-4.6
		c-3.1-14.5-3.3-29.1,0.3-43.5c2.4-9.4,7.6-17.3,14.8-23.8c1.3-1.2,2.6-2.5,5-4.7c-22.8,1.7-44.1,3.4-60.8,17.6
		c16.3,29.4,32.1,58.1,48,86.8c9.8,17.6,14.1,22,37.8,15.6c24-6.4,44.8-19.2,65.2-33.1c10.4-7.1,21.2-13.7,32.2-20
		c4.2-2.4,9.3-3.5,14.2-4.5c1.5-0.3,3.5,1.5,5.3,2.3c-1.1,1.5-1.9,3.4-3.4,4.3c-8.1,4.9-16.4,9.5-24.6,14.3c-1.4,0.8-2.5,2-4.7,3.8
		c8.7-2.7,16.2-5.6,23.9-7.3c6.4-1.5,13.1-1.9,19.7-2.2c1.9-0.1,3.8,2,5.8,3c-1.6,1.9-2.9,4.7-5,5.4c-6.3,2.2-12.8,3.5-19.2,5.3
		c-2.7,0.8-5.2,1.9-7.8,3.6c5.3,0.3,10.7,0.2,16,0.9c2.2,0.3,4.3,2.1,6.4,3.2c-2.1,1.3-4.1,3.1-6.4,3.7c-8.8,2.3-18.1,3.5-26.6,6.6
		c-10.7,4-21.1,9-31.1,14.4c-19.2,10.4-37.7,21.8-57,32c-9.4,5-19.9,7.5-31,5.7c-7.9-1.3-14.6-4.8-19.5-11.1
		c-9-11.6-17.6-23.5-26.6-35c-7.3-9.3-14.2-19.1-22.6-27.2c-11.6-11.3-25.9-16.1-42.2-11c-0.6,0.2-1.2,0.5-1.9,0.7
		c-0.3,0.1-0.5,0.4-1.5,1c1.4,0.2,2.2,0.4,3,0.3c11.5-0.7,21.7,3,29.3,11.3c7.1,7.8,13,16.8,19.1,25.4c0.6,0.9,0,3.4-0.9,4.6
		c-10.1,14.6-17.2,30.4-19.3,48.1c-3.6,29.9,1.2,58.7,14.5,85.6c24.9,50.4,64.6,84.5,118.5,100.2c84.8,24.7,158.7,2.5,220.3-58.8
		c41.6-41.4,62.1-93.1,63.1-152.1c0.3-16.6-1.9-32.9-5.7-49c-0.3-1.1-0.9-2.5-0.5-3.4c0.8-2,1.9-4.7,3.5-5.2
		c1.4-0.5,4.4,1.2,5.3,2.8c1.8,2.9,2.8,6.4,3.9,9.7c17.9,56,13.2,110.9-10.5,163.8C468,463.3,402.4,514.1,311.6,530.8
		c-70.4,13-136.5-0.7-196.3-39.9C53,450.1,15.4,392,3.1,318.2c-6-36.1-3.2-72.1,6.8-107.4c7.5-26.2,18.6-50.6,35.9-71.9
		c0.9-1.1,1.4-2.6,1.7-4c8-34,23.3-64.1,47.4-89.4c16.2-16.9,35.5-29,58.2-35.4c3.3-0.9,6.5-2.5,9.5-4.2c13.8-7.8,27.4-8.2,41.3-0.1
		c2.3,1.3,5.3,2.1,7.9,2c12-0.7,21.4,3.5,28.5,13.3c1.4,1.9,3.6,3.4,5.7,4.4c13.2,6.3,26.5,12.4,39.8,18.7c2.5,1.2,5,2.7,7.2,4.4
		c7.9,6.1,7.8,14.7-0.6,20.2c-4.4,2.9-9.4,5.3-14.4,6.6c-37.1,9.9-74.6,12.4-112.2,4.2C153.7,77.1,142.2,71.3,130.1,66.9z
		 M183.9,67.3c15.1,0.2,27.2-10.9,27.6-25.2c0.4-14.4-12.6-27.3-27.5-27.4c-15.6-0.1-27.6,11.2-27.7,26.1
		C156.2,55.4,168.4,67.1,183.9,67.3z"/>
	<path class="st0" d="M281.9,185.3c-0.1-2.6-0.3-4.2-0.3-5.8c-0.2-19-0.3-38-0.4-57c0-5.2,2.2-7.4,7.7-7.4c17-0.1,34,0,51-0.1
		c2.6,0,5.4-0.2,7.9-0.9c8.4-2.3,11.4-9.4,6.2-16.5c-8.6-11.8-7-21.5-1.2-29.5c6.6-9.1,19.5-12.8,31.5-9.3
		c8.1,2.4,14.4,6.8,17.9,14.7c3.4,7.6,2.9,14.9-2,21.7c-0.7,0.9-1.4,1.8-2.1,2.8c-4.9,7.6-2.3,14.2,6.4,16.2
		c2.6,0.6,5.3,0.8,7.9,0.8c16.7,0.1,33.3,0.1,50,0.1c7,0,8.6,1.6,8.6,8.5c0,16.7-0.1,33.3-0.1,50c0,4.6-1.8,8.2-6,10
		c-4.5,1.9-7.6-0.7-10.5-3.7c-11.1-11.7-19.6-13.7-30.4-7.1c-11.7,7.2-17,22-12.2,34.9c3.7,9.9,10.2,16.7,21.4,17.7
		c6.4,0.6,11.8-1.5,16.4-5.9c2-2,3.9-4.1,6-6c2.7-2.3,5.8-4.1,9.6-2.4c3.9,1.8,5.8,4.9,5.8,9.1c0.1,7.3,0.1,14.7,0,22
		c0,8.7,0,17.3-0.1,26c0,8-1.7,9.8-9.6,9.8c-17.3,0-34.7,0.1-52,0c-5.4,0-10.1,1.2-12.7,6.2c-2.7,5.2-0.4,9.5,2.8,13.7
		c7.2,9.5,6.3,21.4-2.5,29.3c-8.4,7.6-18.3,10.8-29.5,7.3c-10.1-3.2-17-9.6-19.1-20.3c-1.1-5.4,0-10.2,3-14.7
		c1.2-1.8,2.6-3.5,3.6-5.4c3.5-6.5,1.1-12.9-5.9-15.2c-2.5-0.8-5.2-1-7.9-1c-17,0-34,0.1-51,0.1c-6.7,0-8.5-2-8.6-8.7
		c0-5.7,0.1-11.3,0-17c-0.1-4.5,1.5-8.2,5.6-9.7c8.4-3.1,16.8-6.1,25.5-8.2c8.6-2.1,17.2-4,24.6-9.2c16.1-11.5,20-34.3,8.4-48.5
		c-7.8-9.4-18-12.9-29.9-10.9c-9.6,1.6-18,5.7-25.3,12.3C287.8,180.2,285.2,182.4,281.9,185.3z"/>
	<path class="st0" d="M205.1,435.4c10.2-1.3,20.4-3.2,30.7-3.6c9.9-0.4,19.9,0.8,29.8,1.4c1.8,0.1,3.5,0.9,5.2,1.6
		c3.1,1.2,6.2,2.8,5.3,6.7c-1,4.3-4.6,4.4-8.1,3.6c-11.4-2.5-22.8-2-34.3-0.1c-1,0.2-2.1,0.5-3.1,1.7c6.4,1.4,12.9,2.6,19.2,4.4
		c9.6,2.8,19.1,5.9,28.4,9.3c2.7,1,5.4,2.8,7.4,4.9c1.2,1.3,2,4.2,1.3,5.6c-0.6,1.4-3.4,1.9-5.2,2.5c-0.7,0.2-1.6-0.1-2.4-0.4
		c-19.9-5.9-39.9-11.7-59.7-17.9c-13.5-4.2-25.5-11.3-37.6-20.7c7.3-12.6,14.7-25.3,22.2-38.2c-13.2,7.3-23.7,17.4-33.1,29.5
		c-12.9-13.1-24.6-26.6-34.2-41.9c-17.4-27.9-25.1-58.2-22.9-91c1-14.3,3.7-28.3,11.2-41.6c4.1,5.5,8.2,10.7,11.8,16.1
		c0.7,1-0.1,3.2-0.4,4.8c-4,23.1-2.4,45.8,4.4,68.2c0.3,1.1,0.9,2.1,1.5,3.7c6.7-1.8,13.2-3.5,19.7-5.4
		c22.5-6.2,45.2-11.6,68.7-11.6c3.8,0,7.7,0.2,11.4,0.9c23.1,4.5,33.1,28.1,19,47c-7.7,10.3-17.6,19-26.7,28.3
		c-10.1,10.4-20.3,20.6-30.4,30.8C204.5,434.5,204.8,435,205.1,435.4z"/>
	<path class="st0" d="M183.9,27.1c-2,3.9-3.3,7.8,0.2,10.7c1.4,1.1,5.2,1.5,6.2,0.5c1.9-1.9,2.7-5,3.9-7.7c4.5,2.4,7,10.1,4.3,16.3
		c-3,6.9-11.9,11-19.2,8.8c-7.9-2.4-12.9-10.4-11.3-18.1C169.2,31.7,175.5,25.1,183.9,27.1z"/>
</g>
</svg>
