<svg width="53" height="35" viewBox="0 0 53 35" fill="none" xmlns="http://www.w3.org/2000/svg">
<path d="M35.8231 11.0775C35.622 11.2819 35.2908 11.1419 35.2908 10.8552C35.2908 10.5935 35.2908 10.3049 35.2784 10.0325C34.9685 -1.28356 18.0302 -1.28356 17.7203 10.0325C17.7132 10.3049 17.7097 10.5792 17.7097 10.8552C17.7097 11.1321 17.3734 11.273 17.1774 11.0775C16.9851 10.8857 16.7857 10.6903 16.5898 10.5039C8.41621 2.72268 -3.55319 14.7915 4.1736 23.003C4.36113 23.2013 4.55163 23.3986 4.74509 23.5945C14.068 32.981 26.4972 32.9818 26.4993 32.9818C26.5015 32.9818 38.9324 32.981 48.2554 23.5945C48.4501 23.3998 48.6406 23.2025 48.8269 23.003C56.5537 14.7826 44.5772 2.72268 36.4107 10.5039C36.2131 10.6903 36.0118 10.8821 35.8231 11.0775Z" fill="#200F00"/>
<path fill-rule="evenodd" clip-rule="evenodd" d="M33.7008 19.5825C33.4385 19.5825 33.3478 19.964 33.515 20.1661C33.8112 20.5238 33.9893 20.984 33.9893 21.4862C33.9893 22.6255 33.0719 23.5493 31.9402 23.5493C30.8083 23.5493 29.8909 22.6255 29.8909 21.4862C29.8909 21.4252 29.8119 21.3949 29.7762 21.4443C29.4531 21.8912 29.235 22.3928 29.1454 22.9197C29.0949 23.2163 28.8555 23.4619 28.5546 23.4619H28.3883C27.9955 23.4619 27.6714 23.1413 27.7295 22.7528C28.1268 20.0909 30.7327 18.1602 33.7008 18.1602C36.669 18.1602 39.2749 20.0909 39.6723 22.7528C39.7302 23.1413 39.4063 23.4619 39.0135 23.4619C38.6207 23.4619 38.3097 23.1398 38.2244 22.7564C37.8358 21.0114 36.0348 19.5825 33.7008 19.5825ZM15.5037 21.4862C15.5037 21.4058 15.4001 21.3627 15.3514 21.4266C15.006 21.8804 14.7707 22.3944 14.6711 22.9361C14.6123 23.256 14.3539 23.522 14.0285 23.522H13.9063C13.5136 23.522 13.1895 23.2013 13.2475 22.8129C13.6447 20.1494 16.2508 18.2202 19.2189 18.2202C22.1871 18.2202 24.7932 20.1494 25.1904 22.8129C25.2483 23.2013 24.9243 23.522 24.5316 23.522C24.1389 23.522 23.8278 23.1998 23.7425 22.8164C23.3542 21.0704 21.5533 19.6425 19.2189 19.6425C19.0067 19.6425 18.9289 19.9427 19.0711 20.1005C19.4011 20.4666 19.6021 20.9528 19.6021 21.4862C19.6021 22.6255 18.6846 23.5493 17.5528 23.5493C16.4211 23.5493 15.5037 22.6255 15.5037 21.4862ZM29.8306 26.2369C29.4859 26.0486 29.0569 26.1836 28.7794 26.4615C28.2443 26.9971 27.4331 27.3631 26.4942 27.3631C25.5529 27.3631 24.7426 27.0008 24.2087 26.4648C23.9314 26.1866 23.5032 26.0499 23.1578 26.2369C22.8125 26.424 22.6801 26.8608 22.9276 27.1659C23.7376 28.164 25.0504 28.7854 26.4942 28.7854C27.9389 28.7854 29.2487 28.1575 30.0576 27.1667C30.3061 26.8624 30.1752 26.4252 29.8306 26.2369Z" fill="#FFEBB8"/>
</svg>
