<svg width="28" height="28" viewBox="0 0 28 28" fill="none" xmlns="http://www.w3.org/2000/svg">
<path d="M17.3775 26.3153C16.7335 26.9593 15.9513 27.2812 15.031 27.2812C14.1107 27.2812 13.3286 26.9592 12.6845 26.3152L1.68454 15.3152C1.37293 15.0036 1.12882 14.6445 0.952193 14.2377C0.775568 13.831 0.687256 13.3976 0.687256 12.9375V3.99997C0.687256 3.08872 1.01153 2.30882 1.66007 1.66028C2.30863 1.01174 3.08854 0.687469 3.99979 0.687469H12.9373C13.3974 0.687469 13.8309 0.775781 14.2376 0.952406C14.6443 1.12903 15.0034 1.37315 15.315 1.68475L26.315 12.6983C26.9591 13.3424 27.2811 14.1223 27.2811 15.038C27.2811 15.9538 26.9591 16.7337 26.315 17.3778L17.3775 26.3153ZM7.12479 9C7.64562 9 8.08833 8.81771 8.45291 8.45312C8.8175 8.08854 8.99979 7.64583 8.99979 7.125C8.99979 6.60417 8.8175 6.16146 8.45291 5.79688C8.08833 5.43229 7.64562 5.25 7.12479 5.25C6.60395 5.25 6.16125 5.43229 5.79666 5.79688C5.43208 6.16146 5.24979 6.60417 5.24979 7.125C5.24979 7.64583 5.43208 8.08854 5.79666 8.45312C6.16125 8.81771 6.60395 9 7.12479 9Z" fill="#EFB359"/>
</svg>
