<svg width="41" height="60" viewBox="0 0 41 60" fill="none" xmlns="http://www.w3.org/2000/svg">
<g clip-path="url(#clip0_52_758)">
<path d="M39.5107 0.861328H0.817139V53.8477H39.5107V0.861328Z" fill="#FFD6B0" stroke="#200F00" stroke-width="4" stroke-miterlimit="10"/>
<path d="M24.5494 59.9648L28.8644 59.666L27.7651 47.6543H24.7669L24.5494 59.9648Z" fill="#FFD6B0"/>
<path d="M31.5216 59.4434C30.628 59.5195 29.7286 59.5899 28.8644 59.666C28.4117 55.793 27.965 51.9668 27.5182 48.1465C26.895 49.1133 26.3189 49.5176 25.3078 48.5156C25.2372 49.2422 25.1667 49.8926 25.1197 50.5488C25.0197 51.8027 24.9374 53.0625 24.8493 54.3164C24.814 54.8262 24.7846 55.336 24.7552 55.8457C24.6847 57.1992 24.62 58.5528 24.5494 59.9649C24.3378 59.9649 24.1321 59.9649 23.9204 59.9649C21.6924 59.9649 19.4644 59.9649 17.2363 59.9649C16.8719 59.9649 16.5074 60.0176 16.1429 59.9883C14.6556 59.877 13.1683 59.7539 11.6868 59.625C10.7463 59.543 9.80567 59.4902 8.87095 59.3438C7.9186 59.1973 6.97801 58.9922 6.0433 58.7461C5.4084 58.582 4.77938 58.3477 4.17975 58.0781C3.81527 57.9141 3.70945 57.627 3.75061 57.1406C3.90933 55.1016 4.5795 53.2149 5.37901 51.3809C6.01978 49.9102 6.81929 48.4981 7.68345 47.1445C8.48296 45.8848 9.38828 44.6719 10.3759 43.5527C11.3165 42.4981 12.4393 41.5957 13.474 40.6289C13.521 40.582 13.5504 40.5235 13.5445 40.5352C12.9919 40.2422 12.4276 40.002 11.9279 39.6738C10.9755 39.0469 10.805 37.418 11.4693 36.5625C11.8103 36.1289 11.8808 35.6485 11.922 35.1621C12.0161 33.9141 12.0572 32.666 12.1219 31.418C12.1278 31.3008 12.1513 31.1836 12.1689 31.0664C12.2394 30.6738 12.2512 30.3164 11.9338 29.9824C11.7045 29.7363 11.5399 29.4141 11.4106 29.0977C11.2283 28.6465 11.6104 28.1836 12.1219 28.1367C13.1742 28.043 14.0795 28.4297 14.9378 28.9805C15.6961 29.4668 16.331 30.0645 16.6073 30.9551C16.7896 31.5469 16.6367 31.8867 16.1135 32.1738C15.9724 33.2285 15.8255 34.2598 15.7079 35.2969C15.6961 35.4258 15.8137 35.6426 15.9313 35.7012C16.5603 36.0176 17.06 36.4043 17.1893 37.1543C17.2422 37.4414 18.0535 37.6348 18.3063 37.4414C18.4826 37.3067 18.6531 37.1485 18.8295 37.0195C19.7701 36.334 19.7701 36.293 19.4585 35.1797C19.1352 34.0313 18.418 33.1406 17.6067 32.3086C17.3363 32.0274 17.2305 31.8047 17.3128 31.377C17.5479 30.1113 17.0247 29.1094 16.0547 28.2891C15.2317 27.5977 14.3264 27.0879 13.2506 26.9297C12.9566 26.8887 12.6568 26.8828 12.357 26.8652C12.0396 26.8418 11.7809 26.5606 11.8515 26.2617C12.0572 25.3711 12.551 24.668 13.4269 24.3633C13.7503 24.252 14.1618 24.3926 14.5321 24.4102C14.6791 24.416 14.8672 24.4512 14.973 24.3809C15.8313 23.7832 16.6779 23.1211 17.0541 22.1309C17.2716 21.5449 17.254 20.8301 17.1952 20.1914C17.0012 18.0996 16.7249 16.0195 17.448 13.9688C18.0829 12.1699 19.241 10.8164 20.9282 9.95509C21.6983 9.56252 22.5566 9.35158 23.4442 9.35158C24.4965 9.35158 25.5312 9.32228 26.5717 9.04103C27.1596 8.88283 27.8298 9.03517 28.4647 9.05275C28.6763 9.05861 28.8879 9.08791 29.0996 9.07033C30.0225 9.01173 30.7221 9.41017 31.3746 10.0254C31.7215 10.3535 32.1917 10.5645 32.615 10.7988C33.2264 11.1328 33.8613 11.4141 34.4609 11.7715C34.99 12.0879 35.1781 12.9844 34.9606 13.6524C34.6667 14.5547 33.9495 15.0469 33.1852 15.4512C31.5157 16.3418 29.805 17.1445 28.1354 18.0293C26.8833 18.6914 25.8604 19.6172 25.3254 20.9766C25.0962 21.5567 25.1902 22.1133 25.5135 22.6289C26.1191 23.584 26.9773 24.1582 28.1413 24.2285C28.4117 24.2461 28.6763 24.2813 28.9467 24.3223C29.8344 24.457 30.4517 25.5938 30.1695 26.3672C30.1166 26.5137 29.9931 26.6367 29.8873 26.7949C30.5457 27.2637 30.8867 27.9082 30.8103 28.7285C30.7926 28.9277 30.7515 29.209 30.6221 29.291C30.2871 29.502 30.34 29.7891 30.3635 30.0703C30.4046 30.6211 30.4869 31.166 30.5281 31.7227C30.6045 32.7539 30.6457 33.791 30.7338 34.8281C30.7515 35.0098 30.8867 35.2266 31.0336 35.3379C31.6274 35.7774 32.0154 36.3047 32.133 37.0606C32.2329 37.7227 32.1388 38.3613 31.6921 38.7891C31.1218 39.3399 30.9278 40.0195 30.6104 40.6875C30.2459 41.4668 30.3987 42 30.9161 42.6563C32.4387 44.5781 33.6438 46.6992 34.5197 48.9844C35.1017 50.502 35.5661 52.0606 36.0188 53.625C36.2481 54.4102 36.3362 55.2422 36.4891 56.0508C36.5126 56.1797 36.5596 56.3086 36.589 56.4375C36.5831 56.7891 36.5479 57.1406 36.5831 57.4863C36.636 57.961 36.4185 58.2012 35.9953 58.3125C35.1429 58.541 34.2904 58.7695 33.438 58.9922C33.0089 59.1035 32.5856 59.209 32.1565 59.3203C32.0742 59.3321 31.9919 59.3496 31.9096 59.3613C31.7744 59.3848 31.645 59.4141 31.5216 59.4434ZM25.7898 30.5039C26.1661 29.9297 26.7892 29.502 27.5182 29.2442C28.2236 28.9922 28.9467 28.7988 29.6874 28.5762C29.6815 28.5586 29.658 28.4766 29.6286 28.3945C29.0819 27.0645 28.1825 26.0274 26.9773 25.2422C26.2307 24.7559 25.4136 24.375 24.8434 23.6367C23.9263 22.4473 23.8793 20.9356 24.667 19.7402C24.7787 19.5703 24.908 19.4121 25.0256 19.2481C25.0021 19.2129 24.9845 19.1778 24.961 19.1426C24.2261 19.336 23.4972 19.5293 22.7623 19.7168C22.7329 19.6934 22.7035 19.6641 22.6683 19.6406C22.8564 19.3945 22.9975 19.0723 23.2444 18.9199C23.7676 18.5918 24.3378 18.334 24.9022 18.0879C26.2837 17.4844 27.6828 16.9043 29.0702 16.3125C29.5581 16.1074 30.0401 15.8906 30.5281 15.6797C30.5163 15.6387 30.4987 15.5918 30.4869 15.5508C30.1283 15.5508 29.7697 15.5567 29.4111 15.5508C29.0466 15.5449 28.6822 15.5391 28.3236 15.5039C27.9532 15.4629 27.5887 15.3985 27.2242 15.3223C26.895 15.2578 26.5717 15.1641 26.1484 15.0586C26.3189 14.9766 26.3836 14.9297 26.4483 14.918C27.3477 14.7891 28.2471 14.6719 29.1466 14.5488C30.534 14.3613 31.9213 14.1914 33.3087 13.9922C33.6908 13.9395 33.9318 13.6875 34.0435 13.2715C33.3675 13.2715 32.762 13.2422 32.1506 13.2774C31.0101 13.3477 29.8755 13.4942 28.741 13.5293C27.7239 13.5586 26.7069 13.4942 25.6958 13.4473C24.5965 13.4004 23.8322 13.9102 23.3326 14.836C23.1327 15.2051 22.9093 15.1875 22.727 14.9004C22.533 14.584 22.4096 14.2149 22.2979 13.8574C22.1686 13.4531 21.9099 13.2363 21.5102 13.1836C21.1457 13.1367 20.9634 13.3594 20.7694 13.6465C20.0228 14.7305 21.2456 16.3828 22.2685 16.5586C22.6036 16.6172 22.9387 16.6934 23.2855 16.7695C22.8623 16.916 22.4625 17.0567 22.0569 17.1914C20.7048 17.6485 20.1933 18.8438 20.2991 20.0274C20.3638 20.707 20.646 21.3633 20.7753 22.043C20.9399 22.9043 20.8753 23.7305 20.064 24.2871C19.1234 24.9317 18.1652 25.5469 17.2892 26.127C17.9829 27.1055 18.6355 28.0371 19.3056 28.9512C19.3879 29.0625 19.5878 29.1504 19.723 29.1387C21.0281 29.0332 22.3508 28.8692 23.6089 29.3496C24.3672 29.6426 25.0609 30.1113 25.7898 30.5039ZM27.7651 46.4063C27.6593 45.9902 27.6064 45.5625 27.4359 45.1875C26.3954 42.9024 24.8316 41.0449 22.5448 39.9492C20.8811 39.1524 19.1116 38.5723 17.3833 37.8985C16.8425 37.6875 16.3016 37.4942 15.6961 37.5352C15.0201 37.582 14.2323 38.5606 14.4263 39.1582C14.638 39.8027 15.0906 40.2129 15.7373 40.3711C17.448 40.7813 19.1646 41.1621 20.8753 41.5723C21.1809 41.6485 21.5631 41.7246 21.7512 41.9414C22.9034 43.2305 23.8616 44.6074 23.5795 46.4883C23.5559 46.6524 23.7793 46.9688 23.9498 47.0215C24.2555 47.1094 24.4084 46.8867 24.3848 46.5645C24.3319 45.7207 24.2908 44.8828 24.2437 44.0684C24.6259 44.1856 25.1902 44.7832 25.3725 45.4395C25.5665 46.1309 25.6723 46.8457 25.8545 47.5371C25.8957 47.7012 26.0955 47.8184 26.2249 47.959C26.3424 47.8125 26.5364 47.6778 26.56 47.5137C26.6011 47.2383 26.56 46.9395 26.5012 46.6641C26.3072 45.7266 26.1249 44.7774 25.5958 43.9336C25.7369 43.9922 25.8721 44.0625 25.9251 44.168C26.2131 44.6895 26.4777 45.2227 26.7481 45.75C26.9009 46.043 27.0538 46.3301 27.2007 46.6113C27.43 46.5352 27.5535 46.4883 27.7651 46.4063ZM28.5293 44.7715C28.5411 44.7539 28.5881 44.6895 28.6057 44.625C28.8526 43.5645 29.0702 42.4922 29.3523 41.4434C29.5875 40.5703 29.9167 39.7207 30.1871 38.8535C30.3987 38.1738 30.1518 37.6055 29.6051 37.4531C28.7821 37.2188 28.1825 37.5996 27.9591 38.4551C27.6416 39.668 27.2889 40.8692 26.9656 42.0762C26.9244 42.2344 26.948 42.457 27.0361 42.586C27.5123 43.3242 28.0238 44.0391 28.5293 44.7715ZM17.7125 42.4688C17.6596 42.4863 17.5597 42.4922 17.5068 42.5449C16.5897 43.5 15.5903 44.3965 14.7849 45.4395C13.7679 46.7637 12.845 48.1699 12.0102 49.6113C11.3165 50.8125 10.7874 52.1133 10.2231 53.3848C9.99966 53.8828 10.2936 54.2695 10.7463 54.1465C10.9167 54.0996 11.0755 53.8711 11.1636 53.6895C12.1689 51.7031 13.0625 49.6582 14.1794 47.7363C15.2435 45.9141 16.525 44.2207 17.7125 42.4688ZM20.3168 44.5371C20.305 44.5078 20.2933 44.4785 20.2815 44.4492C20.1874 44.5313 20.0758 44.5957 20.0111 44.6895C19.6172 45.2871 19.1881 45.8672 18.8471 46.5C17.6949 48.6328 16.7131 50.8477 16.0841 53.1914C15.8431 54.0879 15.6844 55.002 15.508 55.916C15.461 56.168 15.5374 56.4082 15.8607 56.4375C16.1782 56.4668 16.3663 56.3145 16.431 55.9981C16.5544 55.3887 16.6543 54.7735 16.8307 54.1817C17.2599 52.7637 17.6772 51.3457 18.1887 49.957C18.853 48.1348 19.5996 46.3418 20.3168 44.5371ZM30.3106 45.9961C30.2753 46.0195 30.2341 46.043 30.1989 46.0664C30.6927 47.8067 31.1924 49.5469 31.6803 51.293C31.7567 51.5625 31.8214 51.8438 32.1388 51.7735C32.5033 51.6914 32.3799 51.3692 32.3034 51.1348C31.9507 50.0156 31.6098 48.8965 31.2041 47.8008C30.969 47.168 30.6104 46.5938 30.3106 45.9961ZM28.0238 12.5684C27.7945 12.3867 27.6299 12.2461 27.4594 12.1113C27.1772 11.8887 27.0126 11.5899 27.1949 11.2676C27.3595 10.9805 27.6652 11.0156 27.9532 11.1621C28.2707 11.3262 28.6057 11.4668 28.9349 11.6192C28.9702 10.9746 28.3824 10.4238 27.3595 10.5235C26.8304 10.5762 26.3836 11.1504 26.507 11.7774C26.6129 12.3223 27.0126 12.8086 28.0238 12.5684ZM26.219 38.6836C26.2249 38.2442 26.0132 37.957 25.6782 38.0215C25.3548 38.086 25.1138 38.3027 25.1256 38.6777C25.1314 38.9883 25.2314 39.211 25.6311 39.1992C26.0015 39.1875 26.2601 39.1172 26.219 38.6836ZM25.1314 34.5059C25.2255 34.5879 25.396 34.834 25.6017 34.875C25.9603 34.9453 26.2954 34.6055 26.2895 34.2949C26.2837 34.002 25.9721 33.709 25.6664 33.709C25.3372 33.7149 25.1138 33.9668 25.1314 34.5059ZM26.219 32.1445C26.2778 31.7461 26.0191 31.582 25.6782 31.5293C25.3725 31.4824 25.0609 31.7988 25.1373 32.1328C25.1902 32.3496 25.4312 32.6953 25.5665 32.6836C25.831 32.6602 26.2837 32.666 26.219 32.1445ZM25.7487 37.0078C26.1073 37.0899 26.2307 36.8028 26.2778 36.4981C26.3248 36.1406 26.0544 35.9063 25.6723 35.9063C25.2843 35.9004 25.1432 36.1524 25.1256 36.4746C25.1079 36.8379 25.3313 37.002 25.7487 37.0078Z" fill="#200F00"/>
<path d="M25.7898 30.5039C25.055 30.1113 24.3672 29.6426 23.603 29.3496C22.3508 28.8691 21.0222 29.0273 19.7171 29.1387C19.5819 29.1504 19.3821 29.0625 19.2997 28.9512C18.6296 28.0371 17.977 27.1055 17.2834 26.127C18.1593 25.5469 19.1175 24.9316 20.0581 24.2871C20.8694 23.7305 20.9281 22.9043 20.7694 22.043C20.6401 21.3633 20.3579 20.707 20.2932 20.0273C20.1816 18.8379 20.693 17.6484 22.051 17.1914C22.4566 17.0566 22.8564 16.916 23.2796 16.7695C22.9328 16.6992 22.5977 16.6172 22.2626 16.5586C21.2456 16.3828 20.017 14.7305 20.7635 13.6465C20.9575 13.3594 21.1398 13.1367 21.5043 13.1836C21.904 13.2363 22.1686 13.4531 22.292 13.8574C22.4037 14.2148 22.5272 14.584 22.7212 14.9004C22.9034 15.1934 23.1268 15.2109 23.3267 14.8359C23.8263 13.9043 24.5965 13.3945 25.6899 13.4473C26.7069 13.4941 27.7239 13.5586 28.7351 13.5293C29.8755 13.4941 31.0101 13.3418 32.1447 13.2773C32.7502 13.2422 33.3616 13.2715 34.0376 13.2715C33.9259 13.6875 33.6849 13.9395 33.3028 13.9922C31.9154 14.1914 30.5281 14.3672 29.1407 14.5488C28.2413 14.6719 27.3418 14.7891 26.4424 14.918C26.3777 14.9297 26.313 14.9766 26.1426 15.0586C26.5658 15.1641 26.8891 15.252 27.2184 15.3223C27.5828 15.3984 27.9473 15.4629 28.3177 15.5039C28.6763 15.5391 29.0408 15.5449 29.4052 15.5508C29.7638 15.5566 30.1224 15.5508 30.481 15.5508C30.4928 15.5918 30.5104 15.6387 30.5222 15.6797C30.0343 15.8906 29.5522 16.1074 29.0643 16.3125C27.6769 16.9043 26.2836 17.4844 24.8963 18.0879C24.3319 18.334 23.7617 18.5918 23.2385 18.9199C22.9916 19.0723 22.8505 19.3945 22.6624 19.6406C22.6918 19.6641 22.7212 19.6934 22.7564 19.7168C23.4913 19.5234 24.2202 19.3301 24.9551 19.1426C24.9786 19.1777 24.9962 19.2129 25.0197 19.248C24.9021 19.4121 24.7728 19.5703 24.6611 19.7402C23.8734 20.9355 23.9204 22.4473 24.8375 23.6367C25.4077 24.375 26.2249 24.7559 26.9714 25.2422C28.1766 26.0273 29.076 27.0645 29.6227 28.3945C29.658 28.4766 29.6757 28.5586 29.6815 28.5762C28.9467 28.7988 28.2177 28.998 27.5123 29.2441C26.7892 29.502 26.1661 29.9297 25.7898 30.5039Z" fill="#FFD6B0"/>
<path d="M27.7651 46.4063C27.5535 46.4883 27.4359 46.5352 27.2301 46.6172C27.0832 46.3359 26.9244 46.0488 26.7775 45.7559C26.5012 45.2285 26.2366 44.6953 25.9544 44.1738C25.8957 44.0684 25.7663 43.9981 25.6252 43.9395C26.1543 44.7832 26.3366 45.7266 26.5306 46.6699C26.5893 46.9453 26.6246 47.2441 26.5893 47.5195C26.5658 47.6836 26.3718 47.8184 26.2543 47.9648C26.1249 47.8242 25.9251 47.707 25.8839 47.543C25.7017 46.8516 25.59 46.1367 25.4019 45.4453C25.2196 44.7891 24.6553 44.1856 24.2731 44.0742C24.3202 44.8828 24.3613 45.7266 24.4142 46.5703C24.4319 46.8926 24.279 47.1211 23.9792 47.0273C23.8087 46.9746 23.5853 46.6582 23.6088 46.4941C23.891 44.6133 22.9328 43.2363 21.7806 41.9473C21.5866 41.7305 21.2103 41.6543 20.9046 41.5781C19.1939 41.168 17.4774 40.7871 15.7667 40.377C15.12 40.2188 14.6615 39.8086 14.4557 39.1641C14.2617 38.5606 15.0495 37.582 15.7255 37.541C16.331 37.5 16.8719 37.6992 17.4127 37.9043C19.141 38.5723 20.9105 39.1524 22.5742 39.9551C24.8551 41.0508 26.4189 42.9082 27.4653 45.1934C27.6064 45.5625 27.6534 45.9902 27.7651 46.4063Z" fill="#FFD6B0"/>
<path d="M28.5293 44.7715C28.0238 44.0391 27.5123 43.3242 27.0361 42.5859C26.948 42.4512 26.9244 42.2285 26.9656 42.0762C27.283 40.8633 27.6358 39.6621 27.9591 38.4551C28.1825 37.5996 28.788 37.2188 29.6051 37.4531C30.1518 37.6113 30.3988 38.1738 30.1871 38.8535C29.9167 39.7207 29.5875 40.5703 29.3523 41.4434C29.0702 42.4922 28.8527 43.5645 28.6058 44.625C28.5881 44.6953 28.5411 44.7539 28.5293 44.7715Z" fill="#FFD6B0"/>
<path d="M17.7125 42.4688C16.525 44.2207 15.2435 45.9141 14.1853 47.7363C13.0683 49.6582 12.1748 51.7031 11.1695 53.6895C11.0755 53.8711 10.9226 54.0996 10.7521 54.1465C10.2936 54.2754 10.0055 53.8828 10.2289 53.3848C10.7933 52.1133 11.3224 50.8125 12.016 49.6113C12.8508 48.1699 13.7738 46.7637 14.7908 45.4395C15.5962 44.3965 16.5956 43.5 17.5126 42.5449C17.5597 42.4922 17.6596 42.4863 17.7125 42.4688Z" fill="#FFD6B0"/>
<path d="M20.3168 44.5371C19.6055 46.3418 18.853 48.1289 18.1887 49.9512C17.6773 51.3398 17.2599 52.7578 16.8307 54.1758C16.6544 54.7676 16.5544 55.3887 16.431 55.9922C16.3663 56.3086 16.1841 56.4609 15.8607 56.4316C15.5433 56.4023 15.461 56.1621 15.508 55.9102C15.6844 54.9961 15.8431 54.082 16.0841 53.1855C16.719 50.8418 17.7008 48.627 18.8471 46.4941C19.1881 45.8672 19.6113 45.2812 20.0111 44.6836C20.0758 44.584 20.1875 44.5195 20.2815 44.4434C20.2933 44.4785 20.305 44.5078 20.3168 44.5371Z" fill="#FFD6B0"/>
<path d="M30.3106 45.9961C30.6104 46.5938 30.969 47.1738 31.1983 47.7949C31.6098 48.8906 31.9448 50.0156 32.2976 51.1289C32.374 51.3633 32.4974 51.6855 32.133 51.7676C31.8155 51.8379 31.745 51.5566 31.6744 51.2871C31.1924 49.541 30.6927 47.8008 30.193 46.0605C30.2341 46.0371 30.2753 46.0137 30.3106 45.9961Z" fill="#FFD6B0"/>
<path d="M28.0237 12.5684C27.0126 12.8145 26.6129 12.3281 26.507 11.7774C26.3836 11.1563 26.8304 10.5762 27.3595 10.5235C28.3823 10.4238 28.9702 10.9746 28.9349 11.6192C28.5999 11.4668 28.2706 11.3262 27.9532 11.1621C27.6651 11.0156 27.3595 10.9805 27.1948 11.2676C27.0126 11.584 27.1772 11.8887 27.4594 12.1113C27.6299 12.2461 27.7945 12.3867 28.0237 12.5684Z" fill="#FFD6B0"/>
<path d="M26.219 38.6836C26.2601 39.1172 26.0015 39.1875 25.6252 39.1992C25.2314 39.2109 25.1314 38.9883 25.1197 38.6777C25.1079 38.3086 25.3548 38.0859 25.6723 38.0215C26.0132 37.9629 26.2249 38.25 26.219 38.6836Z" fill="#FFD6B0"/>
<path d="M25.1314 34.5059C25.1138 33.9668 25.3372 33.7149 25.6664 33.7149C25.9721 33.7149 26.2837 34.0078 26.2895 34.3008C26.2954 34.6114 25.9545 34.9512 25.6017 34.8809C25.3901 34.8399 25.2255 34.5879 25.1314 34.5059Z" fill="#FFD6B0"/>
<path d="M26.219 32.1445C26.2837 32.6719 25.831 32.6602 25.5723 32.6836C25.4371 32.6953 25.1902 32.3496 25.1432 32.1328C25.0668 31.8047 25.3783 31.4824 25.684 31.5293C26.0191 31.5762 26.2778 31.7461 26.219 32.1445Z" fill="#FFD6B0"/>
<path d="M25.7487 37.0078C25.3254 37.0078 25.1079 36.8379 25.1256 36.4688C25.1432 36.1465 25.2784 35.9004 25.6723 35.9004C26.0544 35.9062 26.3248 36.1406 26.2778 36.4922C26.2366 36.8027 26.1073 37.0898 25.7487 37.0078Z" fill="#FFD6B0"/>
</g>
<defs>
<clipPath id="clip0_52_758">
<rect width="40.3279" height="60" fill="white"/>
</clipPath>
</defs>
</svg>
