<svg width="30" height="30" viewBox="0 0 30 30" fill="none" xmlns="http://www.w3.org/2000/svg">
<mask id="mask0_19_311" style="mask-type:alpha" maskUnits="userSpaceOnUse" x="0" y="0" width="30" height="30">
<rect width="30" height="30" fill="#D9D9D9"/>
</mask>
<g mask="url(#mask0_19_311)">
<path d="M26.2604 13.7917V24.1667C26.2604 24.7292 26.0538 25.217 25.6406 25.6302C25.2274 26.0434 24.7396 26.25 24.1771 26.25H5.82291C5.26041 26.25 4.77257 26.0434 4.35938 25.6302C3.94619 25.217 3.7396 24.7292 3.7396 24.1667V13.7917C3.19097 13.3125 2.81077 12.7153 2.59897 12C2.38716 11.2847 2.39931 10.5486 2.63541 9.79166L3.96876 5.5625C4.13542 5.00694 4.42883 4.56597 4.84897 4.23959C5.2691 3.9132 5.75348 3.75 6.3021 3.75H23.6146C24.191 3.75 24.6944 3.91493 25.125 4.24478C25.5556 4.57466 25.8577 5.0139 26.0313 5.5625L27.3854 9.79166C27.6215 10.5486 27.6302 11.2813 27.4115 11.9896C27.1927 12.6979 26.809 13.2986 26.2604 13.7917ZM17.8021 12.7083C18.3924 12.7083 18.875 12.5122 19.25 12.1198C19.625 11.7274 19.7743 11.2639 19.6979 10.7292L18.9479 5.83331H16.0521V10.8125C16.0521 11.3194 16.2187 11.7621 16.5521 12.1406C16.8854 12.5191 17.3021 12.7083 17.8021 12.7083ZM12.0313 12.7083C12.5799 12.7083 13.0399 12.5226 13.4115 12.151C13.783 11.7795 13.9688 11.3333 13.9688 10.8125V5.83331H11.0729L10.3229 10.7292C10.2396 11.2569 10.3733 11.7188 10.7239 12.1146C11.0747 12.5104 11.5104 12.7083 12.0313 12.7083ZM6.38541 12.7083C6.84375 12.7083 7.24132 12.5486 7.57813 12.2292C7.91494 11.9097 8.1146 11.5139 8.1771 11.0417L8.94791 5.83331H6.05207L4.67707 10.2708C4.49653 10.8403 4.57465 11.3889 4.91144 11.9167C5.24826 12.4444 5.73958 12.7083 6.38541 12.7083ZM23.6146 12.7083C24.2604 12.7083 24.757 12.4479 25.1042 11.9271C25.4514 11.4063 25.5313 10.8542 25.3438 10.2708L23.9479 5.83331H21.0729L21.8438 11.0417C21.9063 11.5139 22.1059 11.9097 22.4427 12.2292C22.7795 12.5486 23.1701 12.7083 23.6146 12.7083Z" fill="#200F00"/>
</g>
</svg>
