<svg width="25" height="25" viewBox="0 0 25 25" fill="none" xmlns="http://www.w3.org/2000/svg">
<mask id="mask0_39_843" style="mask-type:alpha" maskUnits="userSpaceOnUse" x="0" y="0" width="25" height="25">
<rect x="0.5" y="0.5" width="24" height="24" fill="#D9D9D9"/>
</mask>
<g mask="url(#mask0_39_843)">
<path d="M11.0821 17.6479L18.6881 10.0359L16.7484 8.08428L11.0821 13.7506L8.25978 10.9283L6.31413 12.8799L11.0821 17.6479ZM12.5 23.3837C10.9941 23.3837 9.57812 23.0991 8.2522 22.5297C6.9263 21.9604 5.77351 21.1859 4.79383 20.2062C3.81413 19.2265 3.03962 18.0737 2.4703 16.7478C1.90097 15.4219 1.6163 14.006 1.6163 12.5C1.6163 10.9898 1.90146 9.57085 2.47178 8.24318C3.04208 6.91552 3.81791 5.76045 4.79928 4.77798C5.78066 3.79552 6.93345 3.02296 8.25765 2.46031C9.58187 1.89766 10.996 1.61633 12.5 1.61633C14.0101 1.61633 15.4289 1.89766 16.7564 2.46031C18.0839 3.02296 19.239 3.79563 20.2217 4.77833C21.2044 5.76102 21.9771 6.91634 22.5397 8.24431C23.1024 9.57228 23.3837 10.9915 23.3837 12.5021C23.3837 14.0127 23.1024 15.4281 22.5397 16.7483C21.9771 18.0686 21.2045 19.2194 20.2221 20.2008C19.2396 21.1821 18.0845 21.958 16.7569 22.5283C15.4292 23.0986 14.0102 23.3837 12.5 23.3837Z" fill="#EFB359"/>
</g>
</svg>
