<svg width="23" height="22" viewBox="0 0 23 22" fill="none" xmlns="http://www.w3.org/2000/svg">
<path d="M11.275 21.85C9.7769 21.85 8.36905 21.5667 7.05143 21C5.73381 20.4333 4.58334 19.6583 3.6 18.675C2.61667 17.6917 1.84167 16.541 1.275 15.2229C0.708336 13.9049 0.425003 12.4965 0.425003 10.9979C0.425003 9.49931 0.708336 8.09167 1.275 6.775C1.84167 5.45833 2.61667 4.30833 3.6 3.325C4.58334 2.34167 5.73403 1.56667 7.05208 1C8.37015 0.433335 9.77848 0.150002 11.2771 0.150002C12.7757 0.150002 14.1792 0.433335 15.4875 1C16.7958 1.56667 17.9417 2.34167 18.925 3.325C19.9083 4.30833 20.6833 5.45903 21.25 6.77708C21.8167 8.09514 22.1 9.50348 22.1 11.0021C22.1 12.5007 21.8167 13.9083 21.25 15.225C20.6833 16.5417 19.9083 17.6917 18.925 18.675C17.9417 19.6583 16.7939 20.4333 15.4816 21C14.1693 21.5667 12.7671 21.85 11.275 21.85ZM8.875 12.45C9.825 12.45 10.625 12.1208 11.275 11.4625C11.925 10.8042 12.25 10 12.25 9.05C12.25 8.1 11.925 7.3 11.275 6.65C10.625 6 9.825 5.675 8.875 5.675C7.925 5.675 7.12084 6 6.4625 6.65C5.80417 7.3 5.475 8.1 5.475 9.05C5.475 10 5.80417 10.8042 6.4625 11.4625C7.12084 12.1208 7.925 12.45 8.875 12.45ZM15.6306 13.4C16.3011 13.4 16.8677 13.1685 17.3306 12.7056C17.7935 12.2427 18.025 11.6761 18.025 11.0056C18.025 10.3352 17.7935 9.76667 17.3306 9.3C16.8677 8.83334 16.3011 8.6 15.6306 8.6C14.9602 8.6 14.3875 8.83146 13.9125 9.29438C13.4375 9.75728 13.2 10.3239 13.2 10.9944C13.2 11.6648 13.4375 12.2333 13.9125 12.7C14.3875 13.1667 14.9602 13.4 15.6306 13.4ZM11.275 18.7C12.625 18.7 13.8625 18.375 14.9875 17.725C16.1125 17.075 17.025 16.225 17.725 15.175C17.3917 15.075 17.0417 14.9917 16.675 14.925C16.3083 14.8583 15.95 14.825 15.6 14.825C14.7515 14.825 13.7269 15.0792 12.5261 15.5875C11.3254 16.0958 10.3583 17.075 9.625 18.525C9.9 18.5917 10.175 18.6375 10.45 18.6625C10.725 18.6875 11 18.7 11.275 18.7ZM8.1682 18.05C8.72274 16.85 9.35834 15.9833 10.075 15.45C10.7917 14.9167 11.3167 14.55 11.65 14.35C11.2167 14.2167 10.7667 14.1042 10.3 14.0125C9.83334 13.9208 9.35834 13.875 8.875 13.875C8.14167 13.875 7.425 13.9625 6.725 14.1375C6.025 14.3125 5.34167 14.5583 4.675 14.875C5.08689 15.5597 5.58985 16.1767 6.1839 16.726C6.77797 17.2753 7.4394 17.7167 8.1682 18.05Z" fill="#200F00"/>
</svg>
