<svg width="43" height="60" viewBox="0 0 43 60" fill="none" xmlns="http://www.w3.org/2000/svg">
<path d="M9.08967 50.8554H33.9108V44.9767H9.08967V50.8554ZM6.38358 60C4.81009 60 3.43695 59.4136 2.26415 58.2407C1.09131 57.0679 0.504883 55.6948 0.504883 54.1213V30.0466C0.504883 25.8162 1.64019 21.9748 3.91082 18.5224C6.18144 15.0699 9.10525 12.5236 12.6823 10.8835V9.07608C12.6823 6.61118 13.5376 4.48227 15.2483 2.68936C16.959 0.896453 19.043 0 21.5002 0C23.9574 0 26.0414 0.895708 27.7522 2.68712C29.4629 4.47859 30.3182 6.60502 30.3182 9.06642V10.8709C33.8952 12.5194 36.819 15.0699 39.0896 18.5224C41.3603 21.9748 42.4956 25.8162 42.4956 30.0466V54.1213C42.4956 55.6948 41.9091 57.0679 40.7363 58.2407C39.5635 59.4136 38.1904 60 36.6169 60H6.38358ZM18.5609 9.14459C18.8564 9.0824 19.3113 9.03574 19.9256 9.00462C20.5399 8.97355 21.0492 8.95801 21.4535 8.95801C21.8579 8.95801 22.3673 8.97355 22.9816 9.00462C23.5959 9.03574 24.0508 9.0824 24.3463 9.14459V8.96781C24.3463 8.137 24.0678 7.41444 23.5109 6.80011C22.9541 6.18579 22.2698 5.87863 21.4581 5.87863C20.6464 5.87863 19.9606 6.18509 19.4007 6.79801C18.8408 7.41089 18.5609 8.13654 18.5609 8.97495V9.14459ZM16.2047 37.2317L21.5072 33.2013L26.8424 37.2317L24.8128 30.6998L30.085 26.8973H23.5748L21.5002 20.0622L19.4497 26.8973H12.9154L18.2053 30.7121L16.2047 37.2317Z" fill="#EFB359"/>
</svg>
