<svg width="16" height="16" viewBox="0 0 16 16" fill="none" xmlns="http://www.w3.org/2000/svg">
<mask id="mask0_36_335" style="mask-type:alpha" maskUnits="userSpaceOnUse" x="0" y="0" width="16" height="16">
<rect width="16" height="16" fill="#D9D9D9"/>
</mask>
<g mask="url(#mask0_36_335)">
<path d="M9.80138 14.5681C9.4579 14.9116 9.04074 15.0833 8.54992 15.0833C8.0591 15.0833 7.64194 14.9116 7.29845 14.5681L1.43179 8.70145C1.2656 8.53526 1.1354 8.34371 1.0412 8.1268C0.947002 7.90989 0.899902 7.67873 0.899902 7.43332V2.66665C0.899902 2.18065 1.07285 1.76471 1.41874 1.41882C1.76464 1.07293 2.18059 0.899984 2.66659 0.899984H7.43325C7.67866 0.899984 7.90982 0.947084 8.12674 1.04128C8.34365 1.13548 8.5352 1.26568 8.70139 1.43187L14.5681 7.30578C14.9115 7.64926 15.0833 8.06521 15.0833 8.55362C15.0833 9.04203 14.9115 9.45798 14.5681 9.80147L9.80138 14.5681ZM4.33325 5.33333C4.61103 5.33333 4.84714 5.23611 5.04159 5.04167C5.23603 4.84722 5.33325 4.61111 5.33325 4.33333C5.33325 4.05556 5.23603 3.81945 5.04159 3.625C4.84714 3.43056 4.61103 3.33333 4.33325 3.33333C4.05547 3.33333 3.81936 3.43056 3.62492 3.625C3.43047 3.81945 3.33325 4.05556 3.33325 4.33333C3.33325 4.61111 3.43047 4.84722 3.62492 5.04167C3.81936 5.23611 4.05547 5.33333 4.33325 5.33333Z" fill="#200F00"/>
</g>
</svg>
