<svg width="26" height="25" viewBox="0 0 26 25" fill="none" xmlns="http://www.w3.org/2000/svg">
<path d="M8.08334 24.75H2.83331C2.27081 24.75 1.78297 24.5434 1.36978 24.1302C0.956594 23.717 0.75 23.2292 0.75 22.6667V17.4167C1.69444 17.3472 2.51041 17.0017 3.19791 16.3802C3.88541 15.7587 4.22916 14.9861 4.22916 14.0625C4.22916 13.1389 3.88541 12.3663 3.19791 11.7448C2.51041 11.1233 1.69444 10.7778 0.75 10.7083V5.45831C0.75 4.89581 0.956594 4.40797 1.36978 3.99478C1.78297 3.58159 2.27081 3.375 2.83331 3.375H8.1875C8.34027 2.52777 8.71527 1.81597 9.3125 1.23959C9.90973 0.663198 10.6319 0.375 11.4792 0.375C12.3264 0.375 13.0486 0.663198 13.6458 1.23959C14.2431 1.81597 14.6181 2.52777 14.7708 3.375H20.0417C20.6042 3.375 21.092 3.58159 21.5052 3.99478C21.9184 4.40797 22.125 4.89581 22.125 5.45831V10.7292C22.9722 10.8819 23.6736 11.2708 24.2292 11.8958C24.7847 12.5208 25.0625 13.2569 25.0625 14.1042C25.0625 14.9514 24.7847 15.6632 24.2292 16.2396C23.6736 16.816 22.9722 17.1806 22.125 17.3333V22.6667C22.125 23.2292 21.9184 23.717 21.5052 24.1302C21.092 24.5434 20.6042 24.75 20.0417 24.75H14.7917C14.7222 23.7361 14.3663 22.9028 13.724 22.25C13.0816 21.5972 12.3194 21.2708 11.4375 21.2708C10.5556 21.2708 9.79341 21.5972 9.15103 22.25C8.50868 22.9028 8.15278 23.7361 8.08334 24.75Z" fill="#200F00"/>
</svg>
