<svg width="15" height="22" viewBox="0 0 15 22" fill="none" xmlns="http://www.w3.org/2000/svg">
<path d="M3.06668 18.1667H11.9333V16.0667H3.06668V18.1667ZM2.1 21.4333C1.53792 21.4333 1.0474 21.2238 0.62845 20.8049C0.209483 20.3859 0 19.8954 0 19.3333V10.7333C0 9.22213 0.405558 7.84988 1.21668 6.6166C2.02779 5.3833 3.07224 4.47371 4.35003 3.88783V3.24218C4.35003 2.36166 4.65558 1.60117 5.26668 0.960699C5.87779 0.320233 6.62223 0 7.5 0C8.37777 0 9.12221 0.319967 9.73333 0.9599C10.3444 1.59985 10.65 2.35946 10.65 3.23873V3.88333C11.9278 4.47221 12.9722 5.3833 13.7833 6.6166C14.5944 7.84988 15 9.22213 15 10.7333V19.3333C15 19.8954 14.7905 20.3859 14.3716 20.8049C13.9526 21.2238 13.4621 21.4333 12.9 21.4333H2.1ZM6.45 3.26665C6.55555 3.24443 6.71805 3.22777 6.9375 3.21665C7.15695 3.20555 7.33889 3.2 7.48333 3.2C7.62778 3.2 7.80973 3.20555 8.02917 3.21665C8.24862 3.22777 8.41113 3.24443 8.51667 3.26665V3.2035C8.51667 2.90672 8.41721 2.6486 8.21828 2.42915C8.01934 2.2097 7.7749 2.09998 7.48495 2.09998C7.19498 2.09998 6.95 2.20945 6.75 2.4284C6.55 2.64733 6.45 2.90655 6.45 3.20605V3.26665ZM5.60833 13.3L7.5025 11.8602L9.40833 13.3L8.68333 10.9667L10.5667 9.60833H8.2411L7.5 7.16665L6.7675 9.60833H4.43333L6.32298 10.971L5.60833 13.3Z" fill="white"/>
</svg>
