<svg width="30" height="30" viewBox="0 0 30 30" fill="none" xmlns="http://www.w3.org/2000/svg">
<mask id="mask0_19_294" style="mask-type:alpha" maskUnits="userSpaceOnUse" x="0" y="0" width="30" height="30">
<rect width="30" height="30" fill="#D9D9D9"/>
</mask>
<g mask="url(#mask0_19_294)">
<path d="M9.45834 24.2917H20.5417V21.6667H9.45834V24.2917ZM8.25 28.375C7.5474 28.375 6.93425 28.1132 6.41056 27.5895C5.88685 27.0658 5.625 26.4526 5.625 25.75V15C5.625 13.111 6.13195 11.3957 7.14584 9.85412C8.15974 8.3125 9.4653 7.17551 11.0625 6.44316V5.63609C11.0625 4.53545 11.4445 3.58483 12.2083 2.78425C12.9722 1.98366 13.9028 1.58337 15 1.58337C16.0972 1.58337 17.0278 1.98333 17.7917 2.78325C18.5555 3.58319 18.9375 4.5327 18.9375 5.63178V6.43753C20.5347 7.17364 21.8403 8.3125 22.8542 9.85412C23.8681 11.3957 24.375 13.111 24.375 15V25.75C24.375 26.4526 24.1131 27.0658 23.5894 27.5895C23.0658 28.1132 22.4526 28.375 21.75 28.375H8.25ZM13.6875 5.66669C13.8194 5.63892 14.0226 5.61808 14.2969 5.60419C14.5712 5.59031 14.7986 5.58337 14.9792 5.58337C15.1597 5.58337 15.3872 5.59031 15.6615 5.60419C15.9358 5.61808 16.1389 5.63892 16.2708 5.66669V5.58775C16.2708 5.21677 16.1465 4.89412 15.8978 4.61981C15.6492 4.3455 15.3436 4.20834 14.9812 4.20834C14.6187 4.20834 14.3125 4.34519 14.0625 4.61887C13.8125 4.89254 13.6875 5.21656 13.6875 5.59094V5.66669ZM12.6354 18.2083L15.0031 16.4087L17.3854 18.2083L16.4792 15.2917L18.8333 13.5938H15.9264L15 10.5417L14.0844 13.5938H11.1667L13.5287 15.2972L12.6354 18.2083Z" fill="#200F00"/>
</g>
</svg>
