<svg width="61" height="60" viewBox="0 0 61 60" fill="none" xmlns="http://www.w3.org/2000/svg">
<path d="M30.5347 60C26.3925 60 22.4998 59.2166 18.8566 57.6498C15.2134 56.083 12.0324 53.9401 9.31347 51.2212C6.59458 48.5023 4.45172 45.3207 2.8849 41.6763C1.31808 38.0319 0.534668 34.1379 0.534668 29.9943C0.534668 25.8506 1.31808 21.9585 2.8849 18.318C4.45172 14.6774 6.59458 11.4977 9.31347 8.7788C12.0324 6.05991 15.214 3.91705 18.8584 2.35023C22.5028 0.78341 26.3968 0 30.5404 0C34.6841 0 38.5646 0.78341 42.1821 2.35023C45.7996 3.91705 48.9679 6.05991 51.6867 8.7788C54.4056 11.4977 56.5485 14.6793 58.1153 18.3237C59.6821 21.9681 60.4655 25.8621 60.4655 30.0057C60.4655 34.1494 59.6821 38.0415 58.1153 41.682C56.5485 45.3226 54.4056 48.5023 51.6867 51.2212C48.9679 53.9401 45.7942 56.083 42.1657 57.6498C38.5372 59.2166 34.6602 60 30.5347 60ZM23.8987 34.0092C26.5255 34.0092 28.7374 33.0991 30.5347 31.2788C32.3319 29.4585 33.2305 27.235 33.2305 24.6083C33.2305 21.9816 32.3319 19.7696 30.5347 17.9724C28.7374 16.1751 26.5255 15.2765 23.8987 15.2765C21.272 15.2765 19.0485 16.1751 17.2282 17.9724C15.4079 19.7696 14.4978 21.9816 14.4978 24.6083C14.4978 27.235 15.4079 29.4585 17.2282 31.2788C19.0485 33.0991 21.272 34.0092 23.8987 34.0092ZM42.5779 36.6359C44.4316 36.6359 45.9984 35.996 47.2783 34.716C48.5583 33.4361 49.1983 31.8693 49.1983 30.0156C49.1983 28.1619 48.5583 26.5899 47.2783 25.2995C45.9984 24.0092 44.4316 23.3641 42.5779 23.3641C40.7242 23.3641 39.1407 24.004 37.8273 25.284C36.5139 26.5639 35.8573 28.1307 35.8573 29.9844C35.8573 31.8381 36.5139 33.4101 37.8273 34.7005C39.1407 35.9908 40.7242 36.6359 42.5779 36.6359ZM30.5347 51.2903C34.2674 51.2903 37.689 50.3917 40.7996 48.5945C43.9102 46.7972 46.4333 44.447 48.3688 41.5438C47.4471 41.2673 46.4794 41.0369 45.4655 40.8525C44.4517 40.6682 43.4609 40.576 42.4932 40.576C40.1471 40.576 37.314 41.2788 33.9939 42.6843C30.6739 44.0899 28.0001 46.7972 25.9725 50.8065C26.7328 50.9908 27.4932 51.1175 28.2536 51.1866C29.0139 51.2558 29.7743 51.2903 30.5347 51.2903ZM21.9444 49.4931C23.4777 46.1751 25.2351 43.7788 27.2167 42.3041C29.1983 40.8295 30.6499 39.8157 31.5715 39.2627C30.3734 38.894 29.1291 38.583 27.8388 38.3295C26.5485 38.076 25.2351 37.9493 23.8987 37.9493C21.8711 37.9493 19.8895 38.1912 17.954 38.6751C16.0185 39.159 14.1291 39.8387 12.2858 40.7143C13.4247 42.6074 14.8154 44.3134 16.4579 45.8323C18.1005 47.3512 19.9293 48.5714 21.9444 49.4931Z" fill="#EFB359"/>
</svg>
