<svg width="24" height="24" viewBox="0 0 24 24" fill="none" xmlns="http://www.w3.org/2000/svg">
<mask id="mask0_50_545" style="mask-type:alpha" maskUnits="userSpaceOnUse" x="0" y="0" width="24" height="24">
<rect width="24" height="24" fill="#D9D9D9"/>
</mask>
<g mask="url(#mask0_50_545)">
<path d="M19.3497 21.5811H4.65045C4.04811 21.5811 3.52561 21.3597 3.08295 20.9171C2.64028 20.4744 2.41895 19.9519 2.41895 19.3496V4.65027C2.41895 4.04685 2.64028 3.52342 3.08295 3.07997C3.52561 2.63652 4.04811 2.41479 4.65045 2.41479H19.3497C19.9532 2.41479 20.4766 2.63652 20.92 3.07997C21.3635 3.52342 21.5852 4.04685 21.5852 4.65027V19.3496C21.5852 19.9519 21.3635 20.4744 20.92 20.9171C20.4766 21.3597 19.9532 21.5811 19.3497 21.5811ZM4.65045 19.3496H12.0001V10.972L19.3497 19.3496V4.65027H12.0001V10.972L4.65045 19.3496Z" fill="#EFB359"/>
</g>
</svg>
