<svg width="40" height="40" viewBox="0 0 40 40" fill="none" xmlns="http://www.w3.org/2000/svg">
<path fill-rule="evenodd" clip-rule="evenodd" d="M10.6246 18.7633C16.4554 16.231 20.337 14.5484 22.2862 13.7321C27.8337 11.4165 28.9999 11.0167 29.7495 11C29.9161 11 30.2826 11.0333 30.5325 11.2332C30.7324 11.3998 30.7824 11.6164 30.8157 11.783C30.8491 11.9496 30.8824 12.2994 30.8491 12.566C30.5492 15.7313 29.2498 23.4112 28.5834 26.943C28.3002 28.4423 27.7504 28.9421 27.2173 28.9921C26.0512 29.092 25.1682 28.2258 24.052 27.4927C22.2862 26.3433 21.3033 25.6269 19.5873 24.4941C17.6049 23.1946 18.8877 22.4783 20.0205 21.3121C20.3204 21.0123 25.4348 16.3476 25.5347 15.9312C25.5514 15.8812 25.5514 15.6813 25.4348 15.5813C25.3182 15.4814 25.1516 15.5147 25.0183 15.548C24.835 15.5813 22.0363 17.4472 16.5887 21.1289C15.789 21.6786 15.0727 21.9452 14.4229 21.9285C13.7066 21.9119 12.3405 21.5287 11.3077 21.1955C10.0582 20.7957 9.05864 20.5791 9.14194 19.8794C9.19192 19.5129 9.6917 19.1464 10.6246 18.7633Z" fill="#200F00"/>
</svg>
