<svg width="22" height="24" viewBox="0 0 22 24" fill="none" xmlns="http://www.w3.org/2000/svg">
<path d="M7.10002 3.04999V0.0249939H14.9V3.04999H7.10002ZM9.50002 15.025H12.5V8.72499H9.50002V15.025ZM11 24C9.60003 24 8.28742 23.7367 7.0622 23.2101C5.837 22.6835 4.76611 21.9675 3.84952 21.0621C2.93296 20.1567 2.21223 19.0908 1.68735 17.8645C1.16247 16.6382 0.900024 15.325 0.900024 13.925C0.900024 12.525 1.16322 11.2122 1.68962 9.98662C2.21602 8.76104 2.93657 7.69507 3.85125 6.78872C4.76593 5.88237 5.83607 5.16183 7.06165 4.62709C8.28723 4.09236 9.60003 3.82499 11 3.82499C12.0902 3.82499 13.1419 3.98749 14.1552 4.31249C15.1684 4.63749 16.1084 5.12499 16.975 5.77499L18.775 3.97499L20.925 6.14999L19.125 7.94999C19.8084 8.83333 20.3084 9.77916 20.625 10.7875C20.9417 11.7958 21.1 12.8417 21.1 13.925C21.1 15.325 20.8358 16.6375 20.3074 17.8626C19.7789 19.0877 19.0588 20.1554 18.147 21.0656C17.2353 21.9757 16.1661 22.6924 14.9397 23.2154C13.7132 23.7385 12.4 24 11 24ZM11 20.6C12.8667 20.6 14.45 19.9542 15.75 18.6625C17.05 17.3708 17.7 15.7917 17.7 13.925C17.7 12.075 17.05 10.4958 15.75 9.18749C14.45 7.87916 12.8667 7.22499 11 7.22499C9.13336 7.22499 7.55002 7.87916 6.25002 9.18749C4.95002 10.4958 4.30002 12.075 4.30002 13.925C4.30002 15.7917 4.95002 17.3708 6.25002 18.6625C7.55002 19.9542 9.13336 20.6 11 20.6Z" fill="#EFB359"/>
</svg>
