<svg width="24" height="24" viewBox="0 0 24 24" fill="none" xmlns="http://www.w3.org/2000/svg">
<mask id="mask0_126_837" style="mask-type:alpha" maskUnits="userSpaceOnUse" x="0" y="0" width="24" height="24">
<rect width="24" height="24" fill="#D9D9D9"/>
</mask>
<g mask="url(#mask0_126_837)">
<path d="M4.62718 21.3532C4.10206 21.3532 3.64071 21.1586 3.24313 20.7693C2.84553 20.3801 2.64673 19.9146 2.64673 19.3728V4.62714C2.64673 4.09814 2.84553 3.63346 3.24313 3.23309C3.64071 2.83274 4.10206 2.63257 4.62718 2.63257H19.3728C19.9185 2.63257 20.3873 2.83274 20.7794 3.23309C21.1714 3.63346 21.3674 4.09814 21.3674 4.62714V5.97714H13.4783C12.5493 5.97714 11.7752 6.28701 11.156 6.90674C10.5368 7.52648 10.2272 8.28726 10.2272 9.18909V14.85C10.2272 15.7623 10.5368 16.5233 11.156 17.1331C11.7752 17.7429 12.5493 18.0478 13.4783 18.0478H21.3674V19.3728C21.3674 19.9141 21.1714 20.3795 20.7794 20.769C20.3873 21.1585 19.9185 21.3532 19.3728 21.3532H4.62718ZM13.4783 16.675C12.921 16.675 12.4687 16.5056 12.1212 16.1669C11.7737 15.8281 11.6 15.388 11.6 14.8464V9.18909C11.6 8.64128 11.7737 8.1978 12.1212 7.85867C12.4687 7.51954 12.921 7.34997 13.4783 7.34997H20.5142C21.0714 7.34997 21.5238 7.51954 21.8712 7.85867C22.2187 8.1978 22.3924 8.64128 22.3924 9.18909V14.8464C22.3924 15.388 22.2187 15.8281 21.8712 16.1669C21.5238 16.5056 21.0714 16.675 20.5142 16.675H13.4783ZM16.3 13.6C16.7167 13.6 17.0875 13.4375 17.4125 13.1125C17.7375 12.7875 17.9 12.4083 17.9 11.975C17.9 11.5583 17.7375 11.1916 17.4125 10.875C17.0875 10.5583 16.7167 10.4 16.3 10.4C15.8833 10.4 15.5125 10.5583 15.1875 10.875C14.8625 11.1916 14.7 11.5583 14.7 11.975C14.7 12.4083 14.8625 12.7875 15.1875 13.1125C15.5125 13.4375 15.8833 13.6 16.3 13.6Z" fill="#EFB359"/>
</g>
</svg>
